HIERARCHY
ROOT hip
{
  OFFSET 0 0 0
  CHANNELS 6 Xposition Yposition Zposition Zrotation Yrotation Xrotation
  JOINT abdomen
  {
    OFFSET 0 20.6881 -0.73152
    CHANNELS 3 Zrotation Xrotation Yrotation
    JOINT chest
    {
      OFFSET 0 11.7043 -0.48768
      CHANNELS 3 Zrotation Xrotation Yrotation
      JOINT neck
      {
        OFFSET 0 22.1894 -2.19456
        CHANNELS 3 Zrotation Xrotation Yrotation
        JOINT head
        {
          OFFSET -0.24384 7.07133 1.2192
          CHANNELS 3 Zrotation Xrotation Yrotation
          JOINT leftEye
          {
            OFFSET 4.14528 8.04674 8.04672
            CHANNELS 3 Zrotation Xrotation Yrotation
            End Site
            {
              OFFSET 1 0 0
            }
          }
          JOINT rightEye
          {
            OFFSET -3.6576 8.04674 8.04672
            CHANNELS 3 Zrotation Xrotation Yrotation
            End Site
            {
              OFFSET 1 0 0
            }
          }
        }
      }
      JOINT rCollar
      {
        OFFSET -2.68224 19.2634 -4.8768
        CHANNELS 3 Zrotation Xrotation Yrotation
        JOINT rShldr
        {
          OFFSET -8.77824 -1.95073 1.46304
          CHANNELS 3 Zrotation Xrotation Yrotation
          JOINT rForeArm
          {
            OFFSET -28.1742 -1.7115 0.48768
            CHANNELS 3 Zrotation Xrotation Yrotation
            JOINT rHand
            {
              OFFSET -22.5879 0.773209 7.07136
              CHANNELS 3 Zrotation Xrotation Yrotation
              JOINT rThumb1
              {
                OFFSET -1.2192 -0.487915 3.41376
                CHANNELS 3 Zrotation Xrotation Yrotation
                JOINT rThumb2
                {
                  OFFSET -3.37035 -0.52449 3.41376
                  CHANNELS 3 Zrotation Xrotation Yrotation
                  End Site
                  {
                    OFFSET -1.78271 -1.18214 1.43049
                  }
                }
              }
              JOINT rIndex1
              {
                OFFSET -7.75947 0.938293 5.60832
                CHANNELS 3 Zrotation Xrotation Yrotation
                JOINT rIndex2
                {
                  OFFSET -2.54057 -0.884171 1.56538
                  CHANNELS 3 Zrotation Xrotation Yrotation
                  End Site
                  {
                    OFFSET -1.62519 -0.234802 1.16502
                  }
                }
              }
              JOINT rMid1
              {
                OFFSET -8.24714 1.18213 3.41376
                CHANNELS 3 Zrotation Xrotation Yrotation
                JOINT rMid2
                {
                  OFFSET -3.10165 -0.590103 1.0647
                  CHANNELS 3 Zrotation Xrotation Yrotation
                  End Site
                  {
                    OFFSET -2.48547 -0.328903 0.83742
                  }
                }
              }
              JOINT rRing1
              {
                OFFSET -8.82822 0.546677 1.51678
                CHANNELS 3 Zrotation Xrotation Yrotation
                JOINT rRing2
                {
                  OFFSET -2.60934 -0.819778 -0.0198488
                  CHANNELS 3 Zrotation Xrotation Yrotation
                  End Site
                  {
                    OFFSET -2.33842 -0.294052 0.168128
                  }
                }
              }
              JOINT rPinky1
              {
                OFFSET -8.27202 -0.0477905 -0.4584
                CHANNELS 3 Zrotation Xrotation Yrotation
                JOINT rPinky2
                {
                  OFFSET -1.82734 -0.647385 -0.700984
                  CHANNELS 3 Zrotation Xrotation Yrotation
                  End Site
                  {
                    OFFSET -1.69225 -0.51767 -0.607171
                  }
                }
              }
            }
          }
        }
      }
      JOINT lCollar
      {
        OFFSET 2.68224 19.2634 -4.8768
        CHANNELS 3 Zrotation Xrotation Yrotation
        JOINT lShldr
        {
          OFFSET 8.77824 -1.95073 1.46304
          CHANNELS 3 Zrotation Xrotation Yrotation
          JOINT lForeArm
          {
            OFFSET 28.1742 -1.7115 0.48768
            CHANNELS 3 Zrotation Xrotation Yrotation
            JOINT lHand
            {
              OFFSET 22.5879 0.773209 7.07136
              CHANNELS 3 Zrotation Xrotation Yrotation
              JOINT lThumb1
              {
                OFFSET 1.2192 -0.487915 3.41376
                CHANNELS 3 Zrotation Xrotation Yrotation
                JOINT lThumb2
                {
                  OFFSET 3.37035 -0.52449 3.41376
                  CHANNELS 3 Zrotation Xrotation Yrotation
                  End Site
                  {
                    OFFSET 1.78271 -1.18214 1.43049
                  }
                }
              }
              JOINT lIndex1
              {
                OFFSET 7.75947 0.938293 5.60832
                CHANNELS 3 Zrotation Xrotation Yrotation
                JOINT lIndex2
                {
                  OFFSET 2.54057 -0.884171 1.56538
                  CHANNELS 3 Zrotation Xrotation Yrotation
                  End Site
                  {
                    OFFSET 1.62519 -0.234802 1.16502
                  }
                }
              }
              JOINT lMid1
              {
                OFFSET 8.24714 1.18213 3.41376
                CHANNELS 3 Zrotation Xrotation Yrotation
                JOINT lMid2
                {
                  OFFSET 3.10165 -0.590103 1.0647
                  CHANNELS 3 Zrotation Xrotation Yrotation
                  End Site
                  {
                    OFFSET 2.48547 -0.328903 0.83742
                  }
                }
              }
              JOINT lRing1
              {
                OFFSET 8.82822 0.546677 1.51678
                CHANNELS 3 Zrotation Xrotation Yrotation
                JOINT lRing2
                {
                  OFFSET 2.60934 -0.819778 -0.0198488
                  CHANNELS 3 Zrotation Xrotation Yrotation
                  End Site
                  {
                    OFFSET 2.33842 -0.294052 0.168128
                  }
                }
              }
              JOINT lPinky1
              {
                OFFSET 8.27202 -0.0477905 -0.4584
                CHANNELS 3 Zrotation Xrotation Yrotation
                JOINT lPinky2
                {
                  OFFSET 1.82734 -0.647385 -0.700984
                  CHANNELS 3 Zrotation Xrotation Yrotation
                  End Site
                  {
                    OFFSET 1.69225 -0.51767 -0.607171
                  }
                }
              }
            }
          }
        }
      }
    }
  }
  JOINT rButtock
  {
    OFFSET -8.77824 4.35084 1.2192
    CHANNELS 3 Zrotation Xrotation Yrotation
    JOINT rThigh
    {
      OFFSET 0 -1.70687 -2.19456
      CHANNELS 3 Zrotation Xrotation Yrotation
      JOINT rShin
      {
        OFFSET 0 -36.8199 0.73152
        CHANNELS 3 Zrotation Xrotation Yrotation
        JOINT rFoot
        {
          OFFSET 0.73152 -45.1104 -5.12064
          CHANNELS 3 Zrotation Xrotation Yrotation
          End Site
          {
            OFFSET -1.1221 -3.69964 12.103
          }
        }
      }
    }
  }
  JOINT lButtock
  {
    OFFSET 8.77824 4.35084 1.2192
    CHANNELS 3 Zrotation Xrotation Yrotation
    JOINT lThigh
    {
      OFFSET 0 -1.70687 -2.19456
      CHANNELS 3 Zrotation Xrotation Yrotation
      JOINT lShin
      {
        OFFSET 0 -36.8199 0.73152
        CHANNELS 3 Zrotation Xrotation Yrotation
        JOINT lFoot
        {
          OFFSET -0.73152 -45.1104 -5.12064
          CHANNELS 3 Zrotation Xrotation Yrotation
          End Site
          {
            OFFSET 1.1221 -3.69964 12.103
          }
        }
      }
    }
  }
}
MOTION
Frames:	7
Frame Time:	0.00833333
-0.946779 82.5087 29.0773 -1.5926 -7.5084 76.9518 8.86662 45.4997 -0.209151 12.9171 -20.4986 3.87351 5.11604 12.8051 -0.358827 -25.1555 -50.5231 -13.5567 -0.0 0.0 0.0 -0.0 0.0 0.0 2.26853e-13 -3.66726e-14 3.62763e-14 35.6423 -3.03739 74.604 -22.6515 -16.8759 45.6794 -0.273717 -14.5535 -2.09068 -8.71614e-10 1.98819e-09 8.95156e-10 -1.51678e-09 3.45418e-09 1.54199e-09 -8.71612e-10 1.9882e-09 8.95142e-10 7.73091 5.47488 0.417314 -8.71615e-10 1.9882e-09 8.95154e-10 2.90554 0.965183 0.102902 -8.71612e-10 1.9882e-09 8.95162e-10 10.2786 0.731801 0.0259123 -8.71613e-10 1.9882e-09 8.95165e-10 2.22167 -0.733487 -0.20892 2.26742e-13 -3.66918e-14 3.60786e-14 -33.5442 12.591 -94.03 22.1751 -16.1988 -44.2116 1.17472 -29.0407 4.48063 -4.55751e-10 6.2131e-10 1.83319e-09 -8.24933e-10 1.05568e-09 3.158e-09 -4.55724e-10 6.21337e-10 1.83321e-09 -7.73091 5.47488 -0.417314 -4.55746e-10 6.21321e-10 1.83318e-09 -2.90554 0.965183 -0.102902 -4.55755e-10 6.21323e-10 1.83318e-09 -10.2786 0.731801 -0.0259123 -4.5575e-10 6.21322e-10 1.83317e-09 -2.22167 -0.733487 0.20892 -2.03217e-16 0.0 -3.88251e-19 -87.4651 -84.4338 -69.9448 -0.0171959 0.496225 -0.107221 -1.09753 3.88151 -17.0686 2.03217e-16 0.0 3.88251e-19 146.688 -79.419 135.629 -0.0260668 20.2048 -0.610298 3.86432 -12.3097 18.1357
-1.21314 82.4839 29.1371 -1.8577 -6.7501 76.1375 9.62045 45.3802 -1.54173 12.8505 -20.8224 3.64016 4.52492 12.922 0.221715 -24.0514 -49.8975 -11.4288 -0.0 0.0 0.0 -0.0 0.0 0.0 3.5628e-13 -5.24611e-14 6.6891e-14 33.2147 1.03556 73.7564 -24.2171 -19.5082 50.3035 -0.293949 -15.2486 -2.19567 -9.2312e-10 1.33468e-09 1.22125e-09 -1.60851e-09 2.32916e-09 2.10488e-09 -9.23116e-10 1.33468e-09 1.22124e-09 7.73091 5.47488 0.417314 -9.23121e-10 1.33468e-09 1.22125e-09 2.90554 0.965183 0.102902 -9.23117e-10 1.33468e-09 1.22126e-09 10.2786 0.731801 0.0259123 -9.23119e-10 1.33468e-09 1.22126e-09 2.22167 -0.733487 -0.20892 3.56188e-13 -5.24974e-14 6.66923e-14 -31.2276 13.4638 -90.9297 23.9711 -19.0432 -49.518 1.18702 -29.3435 4.53155 -4.63679e-10 5.86237e-10 1.93762e-09 -8.4227e-10 9.92623e-10 3.34019e-09 -4.63645e-10 5.86267e-10 1.93765e-09 -7.73091 5.47488 -0.417314 -4.63672e-10 5.8625e-10 1.93762e-09 -2.90554 0.965183 -0.102902 -4.63683e-10 5.86253e-10 1.93761e-09 -10.2786 0.731801 -0.0259123 -4.6368e-10 5.86252e-10 1.93761e-09 -2.22167 -0.733487 0.20892 -2.03217e-16 0.0 -3.88251e-19 -75.1052 -84.5865 -59.3877 -0.0205117 0.312706 -0.133529 -0.997029 4.10733 -16.4229 2.03217e-16 0.0 3.88251e-19 145.241 -79.7263 133.105 -0.0271193 20.3258 -0.59835 3.85339 -12.2393 18.1059
-1.48743 82.4832 29.1942 -2.1132 -6.0333 75.4123 9.5132 45.4789 -2.60614 12.8849 -21.0777 3.3966 3.985 12.7391 0.802911 -22.6998 -49.2037 -9.2378 -0.0 0.0 0.0 -0.0 0.0 0.0 3.5944e-13 -2.20362e-14 7.73987e-14 31.3001 4.589 73.006 -25.7058 -22.618 54.7735 -0.295586 -15.1774 -2.18575 -7.37231e-10 3.03948e-10 1.68691e-09 -1.29053e-09 5.55997e-10 2.911e-09 -7.37222e-10 3.03948e-10 1.68689e-09 7.73091 5.47488 0.417314 -7.37229e-10 3.03946e-10 1.6869e-09 2.90554 0.965183 0.102902 -7.37225e-10 3.03945e-10 1.68691e-09 10.2786 0.731801 0.0259123 -7.37231e-10 3.03949e-10 1.68692e-09 2.22167 -0.733487 -0.20892 3.59389e-13 -2.20628e-14 7.71898e-14 -29.4779 15.2191 -88.3671 25.5955 -22.3306 -54.3776 1.03255 -27.7375 4.23027 -5.60528e-10 2.21593e-10 1.53566e-09 -1.0018e-09 3.63166e-10 2.64401e-09 -5.605e-10 2.21619e-10 1.53569e-09 -7.73091 5.47488 -0.417314 -5.6052e-10 2.21607e-10 1.53566e-09 -2.90554 0.965183 -0.102902 -5.60534e-10 2.21609e-10 1.53565e-09 -10.2786 0.731801 -0.0259123 -5.6053e-10 2.21608e-10 1.53565e-09 -2.22167 -0.733487 0.20892 -2.03217e-16 0.0 -3.88251e-19 -63.6727 -84.3798 -49.2604 -0.0240103 0.210947 -0.149517 -0.936965 4.21927 -15.798 2.03217e-16 0.0 3.88251e-19 142.705 -80.2256 129.998 -0.0295921 20.4576 -0.594969 3.84867 -12.1716 18.0962
-1.75512 82.4814 29.2718 -2.3224 -5.2977 74.6192 8.89583 45.7124 -3.50905 12.9552 -21.3068 3.14574 3.48579 12.3241 1.38318 -21.2013 -48.419 -7.0233 -0.0 0.0 0.0 -0.0 0.0 0.0 2.96196e-13 3.98317e-14 8.07811e-14 29.7564 8.20844 72.2212 -26.9111 -25.8819 59.5715 -0.266253 -14.3652 -2.06373 -3.7928e-10 -1.05732e-09 2.21054e-09 -6.7609e-10 -1.7856e-09 3.81852e-09 -3.79265e-10 -1.05733e-09 2.21052e-09 7.73091 5.47488 0.417314 -3.79273e-10 -1.05733e-09 2.21054e-09 2.90554 0.965183 0.102902 -3.79269e-10 -1.05733e-09 2.21055e-09 10.2786 0.731801 0.0259123 -3.79282e-10 -1.05732e-09 2.21055e-09 2.22167 -0.733487 -0.20892 2.96202e-13 3.98319e-14 8.05575e-14 -28.3185 17.7224 -85.3904 26.8768 -25.7644 -59.446 0.789034 -24.6197 3.68122 -7.55261e-10 -3.89645e-10 8.10619e-10 -1.32291e-09 -6.90468e-10 1.38756e-09 -7.55249e-10 -3.8963e-10 8.10652e-10 -7.73091 5.47488 -0.417314 -7.55255e-10 -3.89634e-10 8.10623e-10 -2.90554 0.965183 -0.102902 -7.55273e-10 -3.89633e-10 8.10619e-10 -10.2786 0.731801 -0.0259123 -7.55264e-10 -3.89633e-10 8.10613e-10 -2.22167 -0.733487 0.20892 -2.03217e-16 0.0 -3.88251e-19 -53.758 -83.8897 -40.3669 -0.0277295 0.149723 -0.159746 -0.90016 4.26096 -15.1876 2.03217e-16 0.0 3.88251e-19 139.165 -80.8318 126.176 -0.0331181 20.6076 -0.596736 3.8503 -12.1098 18.099
-1.93935 82.4314 29.399 -2.4326 -4.9524 73.6195 8.11788 45.9728 -4.2083 13.0067 -21.5312 2.92567 3.04168 11.885 1.89696 -19.8691 -47.6445 -5.07899 -0.0 0.0 0.0 -0.0 0.0 0.0 2.11288e-13 1.01861e-13 7.85106e-14 28.37 11.7542 71.801 -27.6658 -28.7472 64.4194 -0.219921 -13.0849 -1.87269 -3.33182e-11 -2.37002e-09 2.6477e-09 -8.14675e-11 -4.04505e-09 4.5766e-09 -3.32974e-11 -2.37004e-09 2.64767e-09 7.73091 5.47488 0.417314 -3.33066e-11 -2.37004e-09 2.6477e-09 2.90554 0.965183 0.102902 -3.33024e-11 -2.37004e-09 2.6477e-09 10.2786 0.731801 0.0259123 -3.33221e-11 -2.37002e-09 2.6477e-09 2.22167 -0.733487 -0.20892 2.11342e-13 1.01888e-13 7.82722e-14 -27.6695 20.1411 -81.9921 27.6728 -28.8009 -64.5227 0.555878 -20.7859 3.0519 -9.3433e-10 -9.92502e-10 7.52434e-11 -1.61592e-09 -1.72891e-09 1.13354e-10 -9.34333e-10 -9.92497e-10 7.52745e-11 -7.73091 5.47488 -0.417314 -9.34325e-10 -9.92493e-10 7.52514e-11 -2.90554 0.965183 -0.102902 -9.34346e-10 -9.92493e-10 7.52487e-11 -10.2786 0.731801 -0.0259123 -9.34332e-10 -9.92492e-10 7.52432e-11 -2.22167 -0.733487 0.20892 -2.03217e-16 0.0 -3.88251e-19 -45.7057 -83.2499 -33.2791 -0.0309477 0.120789 -0.167622 -0.872663 4.27269 -14.5592 2.03217e-16 0.0 3.88251e-19 135.022 -81.4138 121.811 -0.0368273 20.7618 -0.599396 3.85475 -12.0487 18.1113
-2.02877 82.3398 29.5578 -2.4653 -5.0905 72.5094 7.51832 46.1529 -4.65411 12.9851 -21.773 2.77464 2.65731 11.63 2.28065 -18.972 -47.001 -3.66578 -0.0 0.0 0.0 -0.0 0.0 0.0 1.49456e-13 1.3277e-13 7.20594e-14 26.8475 14.8406 72.0547 -28.0561 -30.9579 68.7799 -0.168221 -11.6098 -1.65458 1.16602e-10 -3.25508e-09 2.85389e-09 1.77053e-10 -5.57179e-09 4.93444e-09 1.16626e-10 -3.2551e-09 2.85387e-09 7.73091 5.47488 0.417314 1.16616e-10 -3.2551e-09 2.85389e-09 2.90554 0.965183 0.102902 1.1662e-10 -3.2551e-09 2.85389e-09 10.2786 0.731801 0.0259123 1.16597e-10 -3.25508e-09 2.8539e-09 2.22167 -0.733487 -0.20892 1.49526e-13 1.32807e-13 7.1811e-14 -27.2764 21.7501 -78.631 28.0903 -31.1806 -69.1367 0.369748 -17.0367 2.46827 -9.84181e-10 -1.332e-09 -3.5773e-10 -1.69116e-09 -2.3128e-09 -6.36134e-10 -9.84194e-10 -1.332e-09 -3.57701e-10 -7.73091 5.47488 -0.417314 -9.84178e-10 -1.33199e-09 -3.5772e-10 -2.90554 0.965183 -0.102902 -9.842e-10 -1.33199e-09 -3.57721e-10 -10.2786 0.731801 -0.0259123 -9.84183e-10 -1.33199e-09 -3.57727e-10 -2.22167 -0.733487 0.20892 -2.03217e-16 0.0 -3.88251e-19 -39.0172 -82.5956 -27.7246 -0.032968 0.1159 -0.176547 -0.842306 4.29513 -13.8799 2.03217e-16 0.0 3.88251e-19 130.971 -81.856 117.37 -0.039898 20.9063 -0.598675 3.85854 -11.9831 18.1303
-2.30367 82.3416 29.6366 -2.7184 -4.3288 71.8201 7.11964 46.2388 -4.67026 12.8673 -22.0769 2.73912 2.27827 11.667 2.47373 -18.6182 -46.5336 -2.95167 -0.0 0.0 0.0 -0.0 0.0 0.0 1.22076e-13 1.17147e-13 5.27125e-14 25.1215 17.1455 72.4526 -28.3505 -33.0572 72.4465 -0.114715 -9.87514 -1.40074 -7.42283e-11 -3.60299e-09 2.72427e-09 -1.49103e-10 -6.18072e-09 4.7104e-09 -7.42066e-11 -3.60301e-09 2.72425e-09 7.73091 5.47488 0.417314 -7.42157e-11 -3.60301e-09 2.72427e-09 2.90554 0.965183 0.102902 -7.42118e-11 -3.60301e-09 2.72427e-09 10.2786 0.731801 0.0259123 -7.42334e-11 -3.60299e-09 2.72427e-09 2.22167 -0.733487 -0.20892 1.22114e-13 1.17165e-13 5.24628e-14 -27.0286 22.8578 -76.0282 28.3895 -33.4237 -73.0634 0.207507 -13.3342 1.90767 -8.19726e-10 -1.33814e-09 -3.6307e-10 -1.40393e-09 -2.32142e-09 -6.43484e-10 -8.19739e-10 -1.33815e-09 -3.63045e-10 -7.73091 5.47488 -0.417314 -8.19725e-10 -1.33814e-09 -3.63063e-10 -2.90554 0.965183 -0.102902 -8.19743e-10 -1.33814e-09 -3.63061e-10 -10.2786 0.731801 -0.0259123 -8.19725e-10 -1.33814e-09 -3.63068e-10 -2.22167 -0.733487 0.20892 -2.03217e-16 0.0 -3.88251e-19 -33.0578 -81.9581 -23.0899 -0.0331214 0.164048 -0.186436 -0.808104 4.33351 -13.1258 2.03217e-16 0.0 3.88251e-19 127.102 -82.1679 112.924 -0.0424862 21.0503 -0.594044 3.862 -11.913 18.1525
